# Alias OBJ Model File
# Exported from SketchUp, (c) 2000-2012 Trimble Navigation Limited
# File units = meters

mtllib roads_adv_t.mtl

g Mesh1 Model

usemtl FrontColor
v 269.437 4.10359e-29 -272.904
vt 10607.8 10744.2
vn 0 1 -0
v 289.428 4.10359e-29 -273.514
vt 11394.8 10768.3
v 286.378 4.10359e-29 -373.467
vt 11274.7 14703.4
v 266.388 4.10359e-29 -372.857
vt 10487.7 14679.4
f 1/1/1 2/2/1 3/3/1 4/4/1 

v 210.472 4.10359e-29 -238.089
vt 8286.29 9373.59
vn -2.17662e-31 1 -3.27715e-31
v 215.927 4.10359e-29 -223.249
vt 8501.06 8789.32
v 231.377 4.10359e-29 -208.713
vt 9109.34 8217.05
v 242.448 4.10359e-29 -206.55
vt 9545.21 8131.88
v 260.44 4.10359e-29 -207.099
vt 10253.5 8153.49
v 271.359 4.10359e-29 -209.933
vt 10683.4 8265.08
v 285.894 4.10359e-29 -225.384
vt 11255.7 8873.37
v 290.434 4.10359e-29 -240.529
vt 11434.4 9469.65
v 270.444 4.10359e-29 -239.919
vt 10647.4 9445.63
v 265.705 4.10359e-29 -231.271
vt 10460.8 9105.14
v 250.865 4.10359e-29 -225.815
vt 9876.57 8890.37
v 235.719 4.10359e-29 -230.356
vt 9280.29 9069.12
v 230.462 4.10359e-29 -238.699
vt 9073.32 9397.61
v 229.456 0 -271.684
vt 9033.7 10696.2
v 209.465 0 -271.074
vt 8246.67 10672.2
f 5/5/2 6/6/2 7/7/2 8/8/2 9/9/2 10/10/2 11/11/2 12/12/2 2/2/2 1/1/2 13/13/2 14/14/2 15/15/2 16/16/2 17/17/2 18/18/2 19/19/2 

v 223.487 0 -308.644
vt 8798.71 12151.3
v 215.355 0 -318.375
vt 8478.54 12534.4
v 192.077 0 -326.458
vt 7562.09 12852.7
v 149.246 0 -319.681
vt 5875.84 12585.9
v 115.049 0 -303.113
vt 4529.47 11933.6
v 123.769 0 -285.114
vt 4872.79 11225
v 153.467 0 -299.502
vt 6042 11791.4
v 187.525 0 -304.891
vt 7382.88 12003.6
v 202.221 0 -299.788
vt 7961.44 11802.7
v 208.831 0 -291.879
vt 8221.67 11491.3
v 228.283 0 -298.745
vt 8987.54 11761.6
f 20/20/1 21/21/1 22/22/1 23/23/1 24/24/1 25/25/1 26/26/1 27/27/1 28/28/1 29/29/1 19/19/1 18/18/1 30/30/1 

v 15.2304 0 -200
vt 599.621 7874.02
v 35.0176 0 -197.09
vt 1378.64 7759.45
v 39.8189 0 -229.739
vt 1567.67 9044.84
v 52.3313 0 -246.092
vt 2060.29 9688.68
v 69.3541 0 -258.75
vt 2730.48 10187
v 66.7065 0 -279.54
vt 2626.24 11005.5
v 41.6591 0 -260.915
vt 1640.12 10272.3
v 20.0317 0 -232.649
vt 788.648 9159.4
f 31/31/1 32/32/1 33/33/1 34/34/1 35/35/1 25/25/1 24/24/1 36/36/1 37/37/1 38/38/1 

v 20 0 -100
vt 787.402 3937.01
v 0 0 -100
vt 0 3937.01
f 39/39/1 32/32/1 31/31/1 40/40/1 

v 0 0 -0
vt 0 0
v 20 0 -0
vt 787.402 0
f 41/41/1 42/42/1 39/39/1 40/40/1 

v 268.106 4.10359e-29 -472.956
vt 10555.3 18620.3
v 248.416 4.10359e-29 -469.444
vt 9780.17 18482.1
f 43/43/1 44/44/1 4/4/1 3/3/1 

vn 8.76143e-20 1 -2.02561e-19
v 262.311 -1.27709e-17 -505.443
vt 10327.2 19899.3
v 239.831 -1.27709e-17 -533.037
vt 9442.18 20985.7
v 214.228 -1.27709e-17 -550.89
vt 8434.16 21688.6
v 165.189 -1.27709e-17 -572.977
vt 6503.51 22558.1
v 157.022 -1.27709e-17 -554.721
vt 6181.96 21839.4
v 212.215 -1.27709e-17 -530.029
vt 8354.93 20867.3
v 229.616 -1.27709e-17 -517.896
vt 9040.01 20389.6
v 242.622 -1.27709e-17 -501.931
vt 9552.03 19761.1
f 44/44/3 43/43/3 45/45/3 46/46/3 47/47/3 48/48/3 49/49/3 50/50/3 51/51/3 52/52/3 

v 64.464 -1.27709e-17 -585.173
vt 2537.95 23038.3
v 56.6322 -1.27709e-17 -575.199
vt 2229.62 22645.6
v 52.1402 -1.27709e-17 -565.158
vt 2052.76 22250.3
v 51.7935 -1.27709e-17 -538.074
vt 2039.11 21184
v 71.7935 -1.27709e-17 -538.074
vt 2826.51 21184
v 71.7935 -1.27709e-17 -558.888
vt 2826.51 22003.5
v 78.1592 -1.27709e-17 -566.996
vt 3077.13 22322.7
v 92.6922 -1.27709e-17 -572.545
vt 3649.3 22541.1
v 126.899 -1.27709e-17 -568.197
vt 4996.02 22369.9
v 130.502 -1.27709e-17 -588.495
vt 5137.88 23169.1
v 87.4846 -1.27709e-17 -593.963
vt 3444.28 23384.4
f 53/53/1 54/54/1 55/55/1 56/56/1 57/57/1 58/58/1 59/59/1 60/60/1 61/61/1 49/49/1 48/48/1 62/62/1 63/63/1 

v -8.20654 -1.27709e-17 -505.074
vt -323.092 19884.8
v -3.20654 -1.27709e-17 -490.074
vt -126.242 19294.2
v 11.7935 -1.27709e-17 -475.074
vt 464.309 18703.7
v 22.7935 -1.27709e-17 -472.574
vt 897.38 18605.3
v 40.7935 -1.27709e-17 -472.574
vt 1606.04 18605.3
v 51.7935 -1.27709e-17 -475.074
vt 2039.11 18703.7
v 66.7935 -1.27709e-17 -490.074
vt 2629.66 19294.2
v 71.7935 -1.27709e-17 -505.074
vt 2826.51 19884.8
v 51.7935 -1.27709e-17 -505.074
vt 2039.11 19884.8
v 46.7935 -1.27709e-17 -496.574
vt 1842.26 19550.1
v 31.7935 -1.27709e-17 -491.574
vt 1251.71 19353.3
v 16.7935 -1.27709e-17 -496.574
vt 661.16 19550.1
v 11.7935 -1.27709e-17 -505.074
vt 464.309 19884.8
v 11.7935 -1.27709e-17 -538.074
vt 464.309 21184
v -8.20654 -1.27709e-17 -538.074
vt -323.092 21184
f 64/64/1 65/65/1 66/66/1 67/67/1 68/68/1 69/69/1 70/70/1 71/71/1 57/57/1 56/56/1 72/72/1 73/73/1 74/74/1 75/75/1 76/76/1 77/77/1 78/78/1 

v 11.7935 -1.27709e-17 -638.074
vt 464.309 25121
v -8.20654 -1.27709e-17 -638.074
vt -323.092 25121
f 78/78/1 77/77/1 79/79/1 80/80/1 

